<?xml version="1.0" encoding="utf-8"?>
<!-- Generator: Adobe Illustrator 16.0.0, SVG Export Plug-In . SVG Version: 6.00 Build 0)  -->
<!DOCTYPE svg PUBLIC "-//W3C//DTD SVG 1.1//EN" "http://www.w3.org/Graphics/SVG/1.1/DTD/svg11.dtd">
<svg version="1.1" id="Layer_1" xmlns="http://www.w3.org/2000/svg" xmlns:xlink="http://www.w3.org/1999/xlink" x="0px" y="0px"
	 width="35.803px" height="35.802px" viewBox="382.146 612.486 35.803 35.802"
	 enable-background="new 382.146 612.486 35.803 35.802" xml:space="preserve">
<path fill="#FFFFFF" d="M408.979,630.891l1.801-7.923c0.13-0.571-0.305-1.116-0.892-1.116h-14.96l-0.349-1.707
	c-0.088-0.426-0.462-0.73-0.896-0.73h-3.905c-0.505,0-0.915,0.409-0.915,0.914v0.609c0,0.505,0.41,0.914,0.915,0.914h2.662
	l2.676,13.081c-0.641,0.368-1.071,1.059-1.071,1.85c0,1.178,0.954,2.133,2.133,2.133c1.178,0,2.133-0.955,2.133-2.133
	c0-0.597-0.246-1.136-0.641-1.523h7.985c-0.396,0.388-0.641,0.927-0.641,1.523c0,1.178,0.954,2.133,2.133,2.133
	c1.178,0,2.133-0.955,2.133-2.133c0-0.844-0.49-1.574-1.203-1.92l0.21-0.925c0.131-0.571-0.305-1.116-0.891-1.116h-10.225
	l-0.249-1.219h11.166C408.515,631.603,408.884,631.307,408.979,630.891z"/>
</svg>
