<!DOCTYPE svg PUBLIC "-//W3C//DTD SVG 20010904//EN" "http://www.w3.org/TR/2001/REC-SVG-20010904/DTD/svg10.dtd">
<svg version="1.0" xmlns="http://www.w3.org/2000/svg" width="678px" height="139px" viewBox="0 0 6780 1390" preserveAspectRatio="xMidYMid meet">
<g id="layer101" fill="#fafafa" stroke="none">
 <path d="M1999 1363 c-51 -134 -134 -224 -155 -168 -8 19 -24 19 -24 0 0 -8 16 -30 35 -50 45 -44 82 -46 128 -6 33 29 87 126 87 155 0 26 15 19 58 -28 45 -49 59 -102 48 -184 -3 -26 -9 -71 -12 -99 l-7 -53 -67 60 c-37 33 -70 60 -74 60 -3 0 -6 -8 -6 -18 0 -10 -18 -56 -41 -102 -34 -69 -41 -94 -43 -148 l-1 -65 93 -79 94 -80 26 25 c38 35 65 47 106 47 41 0 42 4 19 51 -26 52 -28 141 -4 242 12 48 21 111 21 139 0 44 -5 58 -39 103 -58 77 -201 225 -217 225 -8 0 -19 -12 -25 -27z m154 -532 c3 -43 10 -88 16 -99 9 -18 7 -21 -24 -26 -19 -4 -49 -19 -66 -33 -46 -39 -64 -23 -63 53 1 45 10 79 40 146 l39 87 26 -25 c23 -22 27 -36 32 -103z"/>
 <path d="M254 1121 c-22 -10 -74 -67 -74 -81 0 -19 88 -136 111 -148 16 -9 46 -11 91 -8 l67 5 -2 -154 c-2 -151 -2 -154 23 -181 14 -16 -21 15 -78 69 -56 53 -107 97 -112 97 -16 0 -11 -18 9 -32 26 -18 76 -96 90 -140 14 -42 4 -70 -33 -99 -12 -9 -32 -26 -46 -38 l-25 -21 79 -73 80 -74 -13 -31 c-16 -39 -81 -99 -127 -118 -59 -25 -133 -18 -190 17 -27 17 -61 43 -76 57 -21 20 -28 22 -28 10 0 -9 28 -45 63 -80 76 -80 128 -102 219 -96 92 5 140 41 223 164 9 13 22 7 80 -40 39 -31 73 -56 77 -56 4 0 7 10 5 22 -1 17 14 33 68 70 75 52 104 83 105 111 0 9 4 17 9 17 17 0 33 83 22 114 -16 40 -119 139 -168 161 l-43 19 0 123 c0 110 -2 125 -20 143 -38 38 -84 15 -78 -40 2 -28 9 -38 35 -50 l33 -15 0 -84 c0 -84 0 -85 -35 -117 -19 -17 -35 -37 -35 -42 0 -6 16 -22 36 -36 l37 -25 -2 -98 c-2 -79 -6 -102 -20 -118 -11 -11 -22 -31 -26 -44 l-7 -23 -25 25 -25 25 17 52 c24 74 16 148 -25 214 -28 45 -29 48 -8 29 13 -13 27 -23 31 -23 4 0 7 101 7 224 l0 224 47 16 c26 9 77 16 115 16 l69 0 -20 -21 c-54 -58 -65 -143 -30 -216 12 -25 49 -67 87 -100 37 -32 69 -61 70 -65 5 -11 32 -10 32 0 0 4 -5 13 -11 19 -8 8 5 29 50 77 34 36 66 78 71 92 27 69 -2 138 -88 213 -32 28 -65 62 -72 76 -15 29 -34 34 -26 7 4 -11 -1 -25 -12 -35 -18 -16 -20 -16 -37 3 -9 10 -37 27 -61 36 -46 18 -72 16 -182 -13 l-64 -16 -47 53 c-46 52 -49 54 -107 57 -32 1 -68 -1 -80 -6z m176 -86 l23 -24 -27 -11 c-37 -14 -131 -24 -152 -16 -16 6 -15 8 1 26 16 18 89 47 121 49 6 1 21 -10 34 -24z m530 -178 c0 -44 -4 -52 -59 -111 -32 -35 -62 -74 -66 -86 l-8 -24 -18 23 c-46 56 -11 181 72 255 l42 39 18 -24 c12 -15 19 -41 19 -72z m-199 -358 c29 -15 41 -55 30 -96 -8 -29 -7 -38 7 -52 29 -26 2 -8 -70 48 -38 29 -68 57 -68 61 0 13 50 50 67 50 8 0 23 -5 34 -11z m-306 -196 c-3 -18 -9 -33 -13 -33 -5 0 -22 15 -40 33 l-32 33 35 32 c21 20 37 48 42 70 7 33 8 29 11 -33 2 -38 0 -85 -3 -102z m279 65 c26 -22 37 -39 32 -47 -7 -10 -88 -51 -102 -51 -2 0 -4 34 -4 75 0 86 1 86 74 23z"/>
 <path d="M3555 1062 c-22 -9 -71 -35 -110 -57 -60 -34 -80 -40 -141 -43 -57 -3 -74 -1 -88 13 -24 24 -34 9 -15 -23 20 -36 108 -71 179 -72 67 0 145 34 187 80 15 18 47 43 71 57 38 22 46 24 67 13 13 -7 29 -26 35 -43 6 -18 10 -145 10 -321 l1 -291 47 -32 47 -33 3 283 c2 155 0 301 -3 323 -4 27 -18 56 -42 84 -64 74 -161 99 -248 62z"/>
 <path d="M5240 1068 c0 -6 8 -17 17 -23 17 -12 17 -14 -1 -34 -21 -23 -100 -70 -154 -91 -33 -13 -34 -13 -90 43 -71 69 -125 97 -199 104 -47 4 -62 2 -80 -13 -40 -35 -38 -59 9 -106 43 -43 105 -77 251 -138 88 -37 132 -79 142 -138 8 -50 -11 -118 -39 -138 -19 -13 -23 -12 -43 13 -19 23 -23 40 -23 99 0 57 -4 74 -19 88 -40 36 -94 -2 -84 -58 5 -25 57 -61 73 -51 7 4 9 -74 8 -236 l-3 -243 -34 -7 c-46 -9 -121 11 -166 45 -56 43 -56 19 0 -30 64 -57 120 -90 167 -98 20 -4 39 -12 42 -19 5 -9 7 -9 12 1 3 7 34 25 67 41 68 31 125 87 158 155 l21 43 91 -94 c49 -51 94 -93 99 -93 5 0 6 26 2 60 -5 45 -2 75 11 115 9 30 20 55 23 54 4 0 52 -59 107 -132 55 -72 105 -132 112 -134 8 -3 10 11 6 50 -5 50 -3 55 22 75 15 12 41 22 57 22 34 0 95 -24 120 -47 27 -24 33 -9 13 33 -59 125 -89 415 -56 534 30 107 106 216 143 204 10 -3 18 -2 18 3 0 14 -129 137 -136 130 -4 -4 0 -15 9 -25 15 -16 14 -19 -18 -45 -76 -60 -125 -223 -119 -392 3 -76 34 -235 58 -296 5 -12 0 -14 -29 -11 -48 6 -78 -3 -114 -34 l-31 -26 0 196 0 196 25 0 c47 0 63 78 21 105 -19 13 -29 14 -45 5 -20 -10 -21 -21 -23 -173 -2 -89 -2 -211 -1 -271 l2 -108 -59 79 -60 80 55 55 c53 53 55 57 55 109 0 79 -58 219 -91 219 -12 0 -12 -3 6 -36 23 -45 19 -134 -8 -175 -12 -19 -27 -33 -32 -32 -19 3 -36 97 -30 163 4 49 17 87 51 156 52 106 76 133 99 114 12 -10 15 -10 15 2 0 16 -128 133 -136 125 -3 -3 1 -11 9 -18 12 -11 9 -20 -19 -56 -86 -112 -126 -255 -105 -370 12 -68 37 -148 53 -169 5 -7 2 -17 -8 -24 -24 -21 -47 -70 -59 -128 l-11 -52 -38 39 -39 40 2 98 c2 71 -3 113 -15 149 -24 71 -111 202 -156 234 -42 31 -41 34 12 45 46 10 116 46 172 88 33 26 49 32 57 24 6 -6 14 -8 17 -4 4 4 -19 36 -52 71 -61 66 -84 83 -84 64z m-316 -68 c14 -5 46 -28 71 -51 55 -51 49 -59 -50 -58 -79 0 -127 19 -158 61 -17 22 -18 30 -7 43 14 17 103 21 144 5z m261 -676 c-30 -72 -113 -164 -149 -164 -3 0 -6 84 -6 188 l1 187 84 -88 85 -88 -15 -35z m19 118 c2 -28 3 -52 1 -52 -2 0 -18 15 -34 32 l-30 33 27 21 c15 12 28 21 29 20 1 -1 4 -25 7 -54z"/>
 <path d="M1094 1049 c-12 -14 -25 -18 -41 -14 -28 7 -29 2 -2 -34 19 -26 21 -43 22 -180 2 -140 -2 -167 -18 -141 -9 15 -25 12 -25 -4 0 -8 9 -18 20 -21 11 -4 27 -19 35 -35 8 -15 29 -34 47 -41 18 -7 37 -15 41 -17 4 -2 6 20 4 49 l-5 54 42 -47 c25 -29 51 -48 63 -48 27 0 66 48 60 72 -3 11 0 18 9 18 23 0 16 14 -32 64 -36 38 -48 45 -59 36 -8 -6 -19 -9 -25 -5 -15 10 -12 -16 5 -35 14 -15 13 -19 -6 -35 -15 -15 -24 -17 -37 -8 -14 8 -17 27 -17 116 0 88 -3 108 -19 126 -10 11 -16 27 -13 36 7 17 38 20 54 4 8 -8 13 -7 18 1 7 11 -80 110 -96 110 -3 0 -14 -9 -25 -21z"/>
 <path d="M1800 1060 c0 -5 5 -10 12 -10 6 0 2 -10 -10 -23 -12 -13 -22 -35 -22 -50 0 -27 -1 -26 -37 15 -21 24 -39 45 -40 47 -1 2 -32 -22 -68 -54 l-66 -58 7 -111 c5 -96 4 -113 -10 -125 -13 -11 -19 -11 -31 -1 -9 7 -19 10 -22 6 -4 -4 21 -34 55 -68 34 -34 64 -59 68 -55 4 3 2 13 -5 20 -9 12 -6 18 14 31 24 16 25 19 25 134 l0 118 38 37 c37 36 39 37 55 19 13 -15 17 -39 17 -115 0 -53 4 -99 10 -102 15 -10 12 -45 -5 -51 -8 -4 -22 -1 -30 6 -9 7 -18 10 -22 6 -8 -8 86 -106 102 -106 6 0 18 9 28 21 12 13 24 18 37 14 26 -8 25 3 -1 31 -20 21 -22 34 -21 169 0 80 2 148 5 151 3 3 14 0 26 -7 40 -26 29 -2 -27 59 -54 58 -82 76 -82 52z"/>
 <path d="M1410 1045 c0 -8 5 -15 12 -15 7 0 -3 -15 -21 -34 -24 -24 -32 -42 -30 -62 1 -16 1 -109 1 -206 l-2 -178 -60 0 c-63 0 -79 -13 -35 -30 14 -5 27 -20 31 -35 5 -19 12 -25 35 -25 27 0 29 -2 29 -42 1 -39 5 -47 48 -80 26 -21 50 -34 55 -29 5 5 7 41 5 80 l-3 71 58 0 c31 0 57 4 57 9 0 15 -79 81 -98 81 -16 0 -17 15 -14 192 2 106 7 197 12 202 6 6 17 3 30 -9 11 -10 22 -16 25 -13 6 6 -115 138 -127 138 -4 0 -8 -7 -8 -15z"/>
 <path d="M4482 1036 c4 -19 -6 -35 -44 -73 -27 -26 -56 -60 -64 -75 -19 -36 -18 -102 2 -144 16 -33 158 -174 176 -174 4 0 8 11 8 25 0 19 10 31 35 46 19 12 35 23 35 26 0 10 -72 95 -116 138 -23 22 -39 45 -37 52 2 6 24 28 49 49 l45 37 32 -30 c57 -52 77 -66 83 -61 5 6 -191 208 -202 208 -4 0 -4 -11 -2 -24z m23 -252 l39 -35 -32 -19 c-23 -14 -32 -27 -32 -47 l-1 -28 -24 28 c-14 16 -25 41 -25 57 0 34 16 80 28 80 4 0 26 -16 47 -36z"/>
 <path d="M6435 1040 c-11 -13 -25 -18 -37 -14 -23 7 -23 -5 2 -36 17 -22 20 -42 20 -172 0 -125 -2 -148 -15 -148 -8 0 -15 5 -15 10 0 6 -7 10 -15 10 -25 0 -18 -12 42 -72 60 -61 79 -71 70 -39 -3 12 3 27 14 37 10 9 19 27 19 38 1 18 7 14 38 -21 l37 -43 62 53 62 52 0 121 c1 94 4 123 15 127 7 3 19 0 25 -6 6 -6 14 -8 17 -4 7 7 -78 106 -103 120 -19 12 -29 1 -15 -16 9 -11 6 -19 -13 -37 -24 -22 -25 -29 -25 -141 l0 -118 -37 -30 c-54 -44 -63 -31 -63 89 0 75 -4 100 -15 110 -33 28 -10 67 28 48 10 -5 21 -7 24 -4 12 12 -74 106 -97 106 -4 0 -15 -9 -25 -20z"/>
 <path d="M2372 1034 c2 -14 -9 -35 -27 -55 -67 -75 -75 -90 -75 -142 l0 -50 107 -108 c59 -60 110 -109 115 -109 4 0 8 6 8 14 0 24 29 38 80 38 55 0 60 6 29 34 -38 34 -49 69 -49 153 0 70 3 83 24 108 24 27 24 28 45 9 12 -11 24 -16 28 -12 4 4 -23 37 -60 73 -36 37 -69 64 -73 60 -4 -3 -2 -13 4 -20 9 -11 6 -19 -13 -37 -14 -13 -25 -30 -25 -39 0 -9 -25 9 -61 44 -46 46 -60 55 -57 39z m100 -163 c-5 -52 11 -115 36 -143 14 -17 13 -18 -10 -18 -14 0 -36 -8 -49 -19 -23 -18 -24 -18 -61 12 -34 27 -38 35 -38 78 0 43 5 52 51 103 61 67 79 64 71 -13z"/>
 <path d="M2760 1035 c9 -11 5 -23 -24 -61 -20 -26 -36 -52 -37 -58 0 -6 0 -44 0 -84 l0 -73 -53 45 c-49 42 -83 59 -74 37 2 -5 31 -32 65 -60 l62 -52 3 -203 c3 -236 -7 -209 128 -319 102 -83 119 -91 172 -76 60 16 97 45 119 93 22 48 23 74 7 128 -14 46 -59 94 -215 231 l-113 98 0 108 c0 95 3 112 21 135 20 26 22 26 40 10 11 -10 22 -14 26 -10 9 9 -107 126 -125 126 -12 0 -12 -3 -2 -15z m162 -491 c139 -122 166 -181 119 -257 -45 -73 -146 -98 -208 -51 l-33 25 0 190 c0 106 4 189 9 187 5 -1 56 -44 113 -94z"/>
 <path d="M3995 1030 c-11 -13 -25 -18 -37 -14 -23 7 -23 -5 2 -36 19 -24 20 -43 20 -367 l0 -343 -26 10 c-43 17 -138 12 -189 -10 -26 -11 -49 -20 -51 -20 -2 0 -4 136 -4 303 0 327 -3 347 -54 347 -30 0 -46 -18 -46 -53 0 -32 15 -51 48 -61 22 -7 22 -8 22 -281 0 -274 0 -275 -23 -289 -105 -70 -272 -77 -380 -18 -64 34 -79 58 -53 78 25 18 67 18 134 0 33 -8 51 -9 49 -3 -4 14 -112 54 -169 62 -39 6 -49 4 -67 -14 -49 -49 -12 -93 134 -162 212 -101 247 -101 448 -7 151 71 210 82 295 54 61 -21 85 -45 77 -78 -6 -23 -4 -24 24 -20 19 2 41 -2 56 -12 30 -20 35 -20 35 -2 0 18 -66 78 -119 108 l-41 23 0 208 0 208 61 -41 c70 -48 69 -48 130 42 38 56 39 59 39 148 0 68 -4 97 -17 116 -14 23 -15 27 -1 40 13 13 19 14 36 3 12 -7 24 -10 28 -6 9 9 -85 107 -102 107 -6 0 -19 -9 -29 -20 -11 -13 -25 -18 -37 -14 -23 7 -23 -2 2 -33 17 -22 20 -41 20 -140 0 -112 -1 -115 -32 -161 -17 -26 -33 -49 -34 -51 -2 -2 -17 7 -33 19 l-31 21 0 106 c0 86 -3 110 -17 125 -13 15 -15 23 -6 36 12 18 16 18 46 7 29 -12 19 14 -25 61 -46 50 -57 53 -83 24z"/>
 <path d="M6124 1035 c3 -9 -11 -37 -34 -68 -38 -49 -60 -100 -60 -140 0 -33 28 -71 117 -158 98 -95 120 -113 109 -84 -15 41 55 71 106 44 33 -18 34 -1 1 34 -45 47 -63 89 -63 147 0 54 10 81 43 117 19 22 22 22 39 6 10 -9 21 -13 25 -9 7 7 -106 126 -120 126 -5 0 -6 -8 -3 -17 3 -11 -6 -31 -23 -50 l-27 -33 -49 50 c-49 50 -72 63 -61 35z m95 -133 c-15 -37 -3 -100 27 -144 24 -37 24 -38 3 -38 -11 0 -32 -9 -46 -20 l-26 -20 -31 24 c-21 16 -34 37 -40 64 -7 35 -5 49 18 97 29 58 71 91 93 73 9 -7 9 -17 2 -36z"/>
 </g>

</svg>