<!DOCTYPE svg PUBLIC "-//W3C//DTD SVG 20010904//EN" "http://www.w3.org/TR/2001/REC-SVG-20010904/DTD/svg10.dtd">
<svg version="1.0" xmlns="http://www.w3.org/2000/svg" width="702px" height="278px" viewBox="0 0 7020 2780" preserveAspectRatio="xMidYMid meet">
<g id="layer101" fill="#ffba00" stroke="none">
 <path d="M709 2462 c-51 -19 -93 -51 -126 -98 -42 -59 -40 -75 21 -162 31 -44 56 -84 56 -89 0 -6 18 -30 40 -55 52 -60 97 -72 238 -65 59 3 115 8 125 12 16 7 17 -10 16 -309 l-1 -315 48 -57 c27 -30 70 -79 96 -107 l48 -52 1 45 c3 153 -2 816 -6 831 -8 24 20 41 120 75 70 24 96 27 210 28 122 1 133 -1 182 -26 68 -35 153 -91 153 -100 0 -5 7 -8 15 -8 8 0 15 6 15 13 0 15 -244 258 -275 274 -11 6 -50 18 -87 27 -52 13 -77 14 -105 7 -21 -6 -54 -12 -73 -15 -19 -2 -80 -16 -135 -31 -55 -15 -104 -28 -110 -29 -5 0 -13 -5 -16 -9 -3 -4 -23 14 -44 40 -67 84 -149 164 -184 179 -45 19 -164 17 -222 -4z m333 -162 c21 -23 38 -47 38 -55 0 -31 -270 -81 -340 -62 -19 5 -39 12 -43 16 -13 12 77 88 119 101 169 52 176 52 226 0z"/>
 <path d="M2899 2389 c-8 -5 -22 -9 -31 -9 -10 0 -41 -11 -70 -24 -29 -12 -60 -26 -68 -29 -8 -4 -46 -27 -85 -52 -69 -44 -164 -93 -195 -99 -8 -1 -33 -8 -55 -14 -53 -14 -213 -9 -245 8 -14 7 -31 21 -38 31 -7 10 -19 16 -27 13 -20 -8 17 -76 64 -114 50 -42 175 -88 257 -95 169 -15 299 37 446 177 91 87 173 138 221 138 26 0 83 -39 96 -65 40 -87 41 -108 41 -695 l0 -568 50 -32 c27 -17 66 -45 86 -61 45 -35 67 -38 59 -6 -3 12 -7 284 -9 603 l-3 582 -30 65 c-71 151 -218 247 -384 252 -37 2 -73 -1 -80 -6z"/>
 <path d="M5047 2377 c-3 -7 10 -28 29 -47 19 -18 34 -36 34 -39 0 -4 -26 -29 -57 -55 -55 -46 -281 -164 -344 -179 -23 -6 -32 1 -71 51 -55 71 -177 170 -255 208 -32 15 -60 31 -63 34 -3 3 -20 7 -39 9 -19 1 -45 7 -57 11 -30 12 -131 11 -163 -1 -14 -6 -38 -22 -53 -37 -23 -21 -28 -34 -28 -75 0 -48 2 -51 73 -121 82 -81 148 -120 379 -221 84 -37 181 -80 215 -95 70 -32 158 -113 149 -136 -3 -8 -2 -13 3 -10 18 12 36 -61 36 -144 0 -110 -24 -179 -80 -227 l-39 -34 -48 53 c-28 31 -49 64 -49 78 -1 14 -3 54 -4 90 -4 175 -5 184 -29 213 -16 20 -35 30 -64 34 -36 5 -45 2 -72 -25 -25 -26 -30 -38 -29 -79 1 -61 6 -74 47 -108 22 -19 46 -29 70 -30 l37 -1 3 -477 2 -476 -22 -15 c-24 -15 -109 -21 -188 -14 -47 5 -160 54 -195 85 -48 43 -84 63 -91 51 -7 -11 8 -27 120 -123 136 -116 204 -154 294 -165 48 -6 68 -14 79 -29 18 -27 31 -27 42 2 6 16 23 27 53 36 116 34 219 101 287 188 42 52 131 203 131 221 0 32 28 15 92 -55 39 -43 123 -129 186 -192 128 -127 144 -131 123 -36 -22 98 -14 227 18 280 3 6 7 21 9 34 4 33 31 83 42 79 5 -2 44 -50 87 -108 129 -172 176 -234 187 -247 6 -7 27 -33 46 -59 48 -65 111 -134 121 -134 13 0 11 51 -2 89 -16 44 -3 115 27 151 27 32 71 55 119 63 68 11 251 -58 276 -104 10 -20 39 -26 39 -8 0 6 -11 32 -24 58 -37 70 -55 115 -66 163 -5 24 -23 104 -39 178 -52 238 -61 481 -25 710 10 64 66 214 102 275 41 70 114 160 149 182 21 14 25 14 42 -1 10 -9 25 -14 34 -10 13 4 -15 36 -114 132 -122 118 -159 147 -159 125 0 -5 16 -24 35 -43 38 -37 43 -50 20 -50 -37 0 -165 -148 -204 -235 -82 -185 -114 -439 -87 -692 15 -140 54 -325 82 -392 8 -19 15 -49 17 -67 1 -17 5 -30 9 -28 8 5 22 -35 15 -43 -3 -2 -16 1 -29 8 -12 7 -52 14 -87 17 -55 3 -71 0 -119 -25 -30 -15 -73 -46 -96 -68 l-41 -40 -3 382 c-1 223 2 384 7 387 5 3 7 16 4 29 -3 12 -1 18 4 12 19 -23 63 -17 93 14 26 25 30 37 30 83 0 64 -17 92 -65 108 -37 12 -58 6 -87 -27 -15 -16 -17 -56 -21 -343 -2 -179 -6 -334 -9 -345 -3 -11 -1 -28 4 -38 6 -12 6 -23 -1 -31 -6 -7 -8 -16 -5 -19 3 -3 8 -63 10 -134 3 -70 7 -138 9 -150 9 -39 -8 -25 -72 60 -34 45 -89 118 -122 161 -34 44 -61 83 -61 86 0 3 19 21 43 40 71 57 149 143 168 185 25 53 24 155 0 231 -10 32 -21 70 -24 84 -7 27 -101 195 -121 216 -9 9 -17 9 -23 3 -7 -7 0 -31 21 -72 29 -58 31 -69 31 -167 0 -96 -3 -110 -29 -162 -16 -31 -43 -71 -61 -88 l-32 -31 -18 43 c-24 62 -45 179 -45 258 0 119 34 245 105 384 50 100 146 246 161 246 6 0 21 -9 34 -20 18 -16 25 -17 31 -8 5 8 -32 52 -113 130 -66 65 -124 118 -129 118 -16 0 -10 -26 11 -45 22 -20 17 -34 -22 -75 -61 -63 -161 -242 -201 -360 -65 -191 -60 -382 15 -605 11 -32 26 -72 35 -88 8 -16 12 -31 9 -34 -3 -4 2 -12 12 -19 16 -12 15 -14 -9 -41 -77 -84 -114 -166 -130 -288 l-13 -95 -49 47 c-27 27 -66 69 -87 95 -36 45 -37 48 -28 95 16 84 8 328 -14 397 -59 191 -268 489 -389 552 l-34 18 97 22 c53 13 129 39 169 59 68 33 199 119 263 172 26 22 30 23 52 8 25 -16 44 -20 44 -7 0 8 -255 272 -263 272 -3 0 -7 -6 -10 -13z m-674 -123 c33 -8 81 -29 106 -47 49 -33 171 -151 171 -166 0 -15 -143 -30 -243 -25 -107 5 -179 27 -231 71 -75 63 -97 127 -52 156 43 28 162 34 249 11z m305 -991 c28 -32 103 -112 167 -178 63 -66 115 -123 115 -127 0 -4 -9 -32 -21 -62 -26 -71 -107 -194 -162 -249 -37 -37 -133 -97 -154 -97 -5 0 -8 173 -8 385 0 212 3 385 6 385 3 0 29 -26 57 -57z m298 -157 c4 -58 4 -106 1 -106 -4 0 -26 21 -49 47 -24 26 -54 57 -67 70 -27 26 -23 49 11 62 13 5 36 23 53 40 27 29 30 30 36 12 4 -10 11 -66 15 -125z"/>
 <path d="M2971 2029 c-13 -5 -30 -17 -37 -27 -16 -20 -18 -108 -4 -117 6 -4 8 -11 5 -16 -4 -5 -1 -9 5 -9 6 0 20 -8 31 -18 11 -11 37 -24 59 -31 l40 -12 0 -553 0 -553 -87 -41 c-204 -96 -299 -117 -449 -102 -121 12 -184 29 -280 76 -140 67 -174 136 -89 180 54 28 222 15 293 -22 15 -8 37 -14 49 -14 l23 0 -22 25 c-12 14 -30 25 -40 25 -11 0 -17 4 -14 9 3 5 0 9 -7 8 -34 -1 -48 4 -41 15 5 7 2 9 -8 5 -9 -3 -38 1 -65 9 -90 28 -188 51 -213 50 -62 -4 -110 -54 -110 -116 0 -32 19 -80 31 -80 4 0 22 -13 40 -29 27 -25 210 -123 314 -169 17 -7 77 -34 135 -60 l105 -46 145 0 145 0 90 44 c442 213 468 223 605 223 138 -1 299 -56 330 -113 13 -24 13 -67 0 -75 -5 -3 -10 -18 -10 -33 0 -20 3 -23 12 -14 15 15 128 16 128 1 0 -5 4 -8 9 -4 6 3 26 -9 45 -26 29 -25 37 -28 42 -16 7 20 -19 69 -58 107 -73 70 -359 240 -405 240 -6 0 -15 5 -18 10 -4 7 3 8 21 4 19 -5 25 -4 20 5 -4 6 -14 11 -22 11 -8 0 -14 6 -14 13 -1 7 -6 5 -14 -6 -13 -17 -17 -16 -72 8 -54 24 -69 26 -177 24 -65 -1 -120 -6 -123 -11 -3 -4 -12 -8 -19 -8 -8 0 -50 -17 -92 -37 -43 -21 -81 -39 -85 -41 -4 -2 -7 274 -8 614 0 611 0 617 -21 651 -30 48 -69 62 -118 42z"/>
 <path d="M1343 1940 c-34 -20 -41 -35 -45 -91 -3 -61 66 -129 131 -129 21 0 21 -4 21 -180 0 -99 -4 -180 -8 -180 -19 0 -132 -116 -132 -135 0 -13 25 -37 71 -71 l70 -50 0 -198 0 -198 -32 -32 c-18 -19 -44 -56 -59 -84 l-26 -50 -45 35 c-24 19 -50 38 -58 42 -11 7 -10 14 4 41 23 44 43 113 55 187 26 159 -58 340 -248 535 -42 43 -78 81 -81 85 -3 5 -42 40 -86 78 -44 39 -90 80 -103 92 -12 13 -29 20 -37 17 -12 -5 2 -25 52 -78 64 -68 85 -99 139 -207 56 -114 37 -191 -67 -269 -33 -25 -65 -50 -72 -56 -7 -6 -22 -16 -34 -22 -15 -8 -20 -18 -16 -32 3 -12 8 -19 10 -16 7 7 134 -102 227 -196 l79 -78 -17 -43 c-39 -101 -152 -205 -280 -257 -76 -31 -227 -33 -291 -4 -22 10 -45 18 -50 20 -23 4 -137 89 -174 129 -50 54 -61 61 -61 37 0 -36 225 -276 273 -291 7 -2 19 -9 27 -16 30 -26 151 -55 225 -55 178 0 326 96 451 292 26 40 48 75 50 77 4 4 66 -42 144 -109 98 -83 147 -120 153 -114 3 3 3 20 0 38 -6 40 23 72 118 130 201 123 264 211 212 294 -23 37 -127 135 -188 178 -99 69 -120 85 -144 108 l-23 24 41 41 c48 48 76 61 133 61 36 0 47 -6 86 -46 l45 -47 -6 -62 c-2 -35 -12 -78 -21 -96 -13 -26 -14 -35 -4 -38 23 -7 90 -83 105 -120 14 -33 16 -34 29 -16 8 10 14 26 14 35 0 9 4 20 10 26 5 5 12 34 16 65 9 74 -12 113 -122 228 -111 117 -231 201 -288 201 l-26 0 2 188 c2 321 3 313 -34 354 -41 45 -74 53 -115 28z m-243 -791 c24 -89 3 -358 -31 -393 -5 -6 -37 19 -80 63 l-72 72 56 57 c77 77 97 117 97 193 0 68 13 71 30 8z m420 -94 c7 -8 18 -15 25 -15 8 0 15 -3 17 -8 2 -4 33 -29 69 -55 36 -27 73 -62 83 -78 17 -28 17 -32 2 -48 -9 -10 -36 -26 -59 -36 -51 -22 -127 -55 -147 -66 -13 -6 -16 14 -18 157 -1 92 2 164 7 164 5 0 14 -7 21 -15z"/>
 </g>

</svg>