<!DOCTYPE svg PUBLIC "-//W3C//DTD SVG 20010904//EN" "http://www.w3.org/TR/2001/REC-SVG-20010904/DTD/svg10.dtd">
<svg version="1.0" xmlns="http://www.w3.org/2000/svg" width="351px" height="139px" viewBox="0 0 3510 1390" preserveAspectRatio="xMidYMid meet">
<g id="layer101" fill="#fafafa" stroke="none">
 <path d="M344 1231 c-22 -10 -74 -67 -74 -81 0 -19 88 -136 111 -148 16 -9 46 -11 91 -8 l67 5 -2 -154 c-2 -151 -2 -154 23 -181 14 -16 -21 15 -78 69 -56 53 -107 97 -112 97 -16 0 -11 -18 9 -32 26 -18 76 -96 90 -140 14 -42 4 -70 -33 -99 -12 -9 -32 -26 -46 -38 l-25 -21 79 -73 80 -74 -13 -31 c-16 -39 -81 -99 -127 -118 -59 -25 -133 -18 -190 17 -27 17 -61 43 -76 57 -21 20 -28 22 -28 10 0 -9 28 -45 63 -80 76 -80 128 -102 219 -96 92 5 140 41 223 164 9 13 22 7 80 -40 39 -31 73 -56 77 -56 4 0 7 10 5 22 -1 17 14 33 68 70 75 52 104 83 105 111 0 9 4 17 9 17 17 0 33 83 22 114 -16 40 -119 139 -168 161 l-43 19 0 123 c0 110 -2 125 -20 143 -38 38 -84 15 -78 -40 2 -28 9 -38 35 -50 l33 -15 0 -84 c0 -84 0 -85 -35 -117 -19 -17 -35 -37 -35 -42 0 -6 16 -22 36 -36 l37 -25 -2 -98 c-2 -79 -6 -102 -20 -118 -11 -11 -22 -31 -26 -44 l-7 -23 -25 25 -25 25 17 52 c24 74 16 148 -25 214 -28 45 -29 48 -8 29 13 -13 27 -23 31 -23 4 0 7 101 7 224 l0 224 47 16 c73 25 165 21 213 -9 22 -14 44 -25 50 -25 5 0 10 -4 10 -10 0 -5 5 -10 10 -10 46 0 -57 118 -132 150 -56 24 -91 23 -201 -8 l-59 -16 -47 54 c-46 52 -49 54 -107 57 -32 1 -68 -1 -80 -6z m176 -86 l23 -24 -27 -11 c-37 -14 -131 -24 -152 -16 -16 6 -15 8 1 26 16 18 89 47 121 49 6 1 21 -10 34 -24z m331 -536 c29 -15 41 -55 30 -96 -8 -29 -7 -38 7 -52 29 -26 2 -8 -70 48 -38 29 -68 57 -68 61 0 13 50 50 67 50 8 0 23 -5 34 -11z m-306 -196 c-3 -18 -9 -33 -13 -33 -5 0 -22 15 -40 33 l-32 33 35 32 c21 20 37 48 42 70 7 33 8 29 11 -33 2 -38 0 -85 -3 -102z m279 65 c26 -22 37 -39 32 -47 -7 -10 -88 -51 -102 -51 -2 0 -4 34 -4 75 0 86 1 86 74 23z"/>
 <path d="M1405 1182 c-22 -9 -71 -35 -110 -57 -60 -34 -80 -40 -141 -43 -57 -3 -74 -1 -88 13 -24 24 -34 9 -15 -23 20 -36 108 -71 179 -72 67 0 145 34 187 80 15 18 47 43 71 57 38 22 46 24 67 13 13 -7 29 -26 35 -43 6 -18 10 -145 10 -321 l1 -291 47 -32 47 -33 3 283 c2 155 0 301 -3 323 -4 27 -18 56 -42 84 -64 74 -161 99 -248 62z"/>
 <path d="M2520 1188 c0 -6 8 -17 17 -23 17 -12 17 -14 -1 -34 -21 -23 -100 -70 -154 -91 -33 -13 -34 -13 -90 43 -71 69 -125 97 -199 104 -47 4 -62 2 -80 -13 -40 -35 -38 -59 9 -106 43 -43 105 -77 251 -138 88 -37 132 -79 142 -138 8 -50 -11 -118 -39 -138 -19 -13 -23 -12 -43 13 -19 23 -23 40 -23 99 0 57 -4 74 -19 88 -40 36 -94 -2 -84 -58 5 -25 57 -61 73 -51 7 4 9 -74 8 -236 l-3 -243 -34 -7 c-46 -9 -121 11 -166 45 -56 43 -56 19 0 -30 64 -57 120 -90 167 -98 20 -4 39 -12 42 -19 5 -9 7 -9 12 1 3 7 34 25 67 41 68 31 125 87 158 155 l21 43 91 -94 c49 -51 94 -93 99 -93 5 0 6 26 2 60 -5 45 -2 75 11 115 9 30 20 55 23 54 4 0 52 -59 107 -132 55 -72 105 -132 112 -134 8 -3 10 11 6 50 -5 50 -3 55 22 75 15 12 41 22 57 22 34 0 95 -24 120 -47 27 -24 33 -9 13 33 -59 125 -89 415 -56 534 30 107 106 216 143 204 10 -3 18 -2 18 3 0 14 -129 137 -136 130 -4 -4 0 -15 9 -25 15 -16 14 -19 -18 -45 -76 -60 -125 -223 -119 -392 3 -76 34 -235 58 -296 5 -12 0 -14 -29 -11 -48 6 -78 -3 -114 -34 l-31 -26 0 196 0 196 25 0 c47 0 63 78 21 105 -19 13 -29 14 -45 5 -20 -10 -21 -21 -23 -173 -2 -89 -2 -211 -1 -271 l2 -108 -59 79 -60 80 55 55 c53 53 55 57 55 109 0 79 -58 219 -91 219 -12 0 -12 -3 6 -36 23 -45 19 -134 -8 -175 -12 -19 -27 -33 -32 -32 -19 3 -36 97 -30 163 4 49 17 87 51 156 52 106 76 133 99 114 12 -10 15 -10 15 2 0 16 -128 133 -136 125 -3 -3 1 -11 9 -18 12 -11 9 -20 -19 -56 -86 -112 -126 -255 -105 -370 12 -68 37 -148 53 -169 5 -7 2 -17 -8 -24 -24 -21 -47 -70 -59 -128 l-11 -52 -38 39 -39 40 2 98 c2 71 -3 113 -15 149 -24 71 -111 202 -156 234 -42 31 -41 34 12 45 46 10 116 46 172 88 33 26 49 32 57 24 6 -6 14 -8 17 -4 4 4 -19 36 -52 71 -61 66 -84 83 -84 64z m-316 -68 c14 -5 46 -28 71 -51 55 -51 49 -59 -50 -58 -79 0 -127 19 -158 61 -17 22 -18 30 -7 43 14 17 103 21 144 5z m261 -676 c-30 -72 -113 -164 -149 -164 -3 0 -6 84 -6 188 l1 187 84 -88 85 -88 -15 -35z m19 118 c2 -28 3 -52 1 -52 -2 0 -18 15 -34 32 l-30 33 27 21 c15 12 28 21 29 20 1 -1 4 -25 7 -54z"/>
 <path d="M1472 1008 c-16 -16 -15 -66 1 -82 7 -8 23 -17 35 -20 22 -7 22 -8 22 -281 0 -274 0 -275 -23 -289 -105 -70 -272 -77 -380 -18 -64 34 -79 58 -53 78 25 18 67 18 134 0 33 -8 51 -9 49 -3 -4 14 -112 54 -169 62 -39 6 -49 4 -67 -14 -49 -49 -12 -93 134 -162 212 -101 247 -101 448 -7 151 71 210 82 295 54 61 -21 85 -45 77 -78 -6 -23 -4 -24 24 -20 19 2 41 -2 56 -12 30 -20 35 -20 35 -2 0 17 -60 72 -115 106 -21 13 -48 33 -58 43 -10 10 -25 16 -32 13 -8 -3 -15 0 -17 5 -4 12 -38 18 -133 26 -57 4 -79 1 -118 -16 -27 -12 -51 -21 -53 -21 -2 0 -4 136 -4 303 0 258 -2 306 -16 325 -17 24 -53 29 -72 10z"/>
 </g>

</svg>